REM DIRINDEX 1\2\4,1\2\5,1\2\6,1\3\7,1\3\8
REM DIRNAME folder01,folder02,folder03,folder04,folder05,folder06,folder07,folder08
TITLE ""
FILE "041_Proficiency Test06.mp3" MP3
  TRACK 01 AUDIO
    TITLE "0:"
    INDEX 01 00:00:00
  TRACK 02 AUDIO
    TITLE "8:cjc128_3979"
    INDEX 01 00:00:25
  TRACK 03 AUDIO
    TITLE "0:"
    INDEX 01 00:02:40
  TRACK 04 AUDIO
    TITLE "8:cjc128_3980"
    INDEX 01 00:03:15
  TRACK 05 AUDIO
    TITLE "0:"
    INDEX 01 00:05:22
  TRACK 06 AUDIO
    TITLE "7:cjc128_3981"
    INDEX 01 00:06:04
  TRACK 07 AUDIO
    TITLE "0:"
    INDEX 01 00:09:45
  TRACK 08 AUDIO
    TITLE "8:cjc128_3982"
    INDEX 01 00:14:11
  TRACK 09 AUDIO
    TITLE "0:"
    INDEX 01 00:15:64
  TRACK 10 AUDIO
    TITLE "7:cjc128_3983"
    INDEX 01 00:16:42
  TRACK 11 AUDIO
    TITLE "0:"
    INDEX 01 00:19:65
  TRACK 12 AUDIO
    TITLE "8:cjc128_3984"
    INDEX 01 00:23:40
  TRACK 13 AUDIO
    TITLE "0:"
    INDEX 01 00:25:37
  TRACK 14 AUDIO
    TITLE "7:cjc128_3985"
    INDEX 01 00:26:26
  TRACK 15 AUDIO
    TITLE "0:"
    INDEX 01 00:28:49
  TRACK 16 AUDIO
    TITLE "8:cjc128_3986"
    INDEX 01 00:31:55
  TRACK 17 AUDIO
    TITLE "0:"
    INDEX 01 00:33:56
  TRACK 18 AUDIO
    TITLE "7:cjc128_3987"
    INDEX 01 00:34:47
  TRACK 19 AUDIO
    TITLE "0:"
    INDEX 01 00:37:28
  TRACK 20 AUDIO
    TITLE "8:cjc128_3988"
    INDEX 01 00:40:42
  TRACK 21 AUDIO
    TITLE "0:"
    INDEX 01 00:42:51
  TRACK 22 AUDIO
    TITLE "7:cjc128_3989"
    INDEX 01 00:43:23
  TRACK 23 AUDIO
    TITLE "0:"
    INDEX 01 00:46:58
  TRACK 24 AUDIO
    TITLE "8:cjc128_3990"
    INDEX 01 00:50:54
  TRACK 25 AUDIO
    TITLE "0:"
    INDEX 01 00:52:57
  TRACK 26 AUDIO
    TITLE "7:cjc128_3991"
    INDEX 01 00:53:45
  TRACK 27 AUDIO
    TITLE "0:"
    INDEX 01 00:56:53
  TRACK 28 AUDIO
    TITLE "8:cjc128_3992"
    INDEX 01 01:00:33
  TRACK 29 AUDIO
    TITLE "0:"
    INDEX 01 01:02:44
  TRACK 30 AUDIO
    TITLE "7:cjc128_3993"
    INDEX 01 01:03:24
  TRACK 31 AUDIO
    TITLE "0:"
    INDEX 01 01:05:44
  TRACK 32 AUDIO
    TITLE "8:cjc128_3994"
    INDEX 01 01:08:27
  TRACK 33 AUDIO
    TITLE "0:"
    INDEX 01 01:10:37
  TRACK 34 AUDIO
    TITLE "7:cjc128_3995"
    INDEX 01 01:11:27
  TRACK 35 AUDIO
    TITLE "0:"
    INDEX 01 01:14:37
